# xmcd CD database file
#
# Track frame offsets:
#	150
#	24305
#	43410
#	60937
#	96420
#	332550
#
# Disc length: 4440 seconds
#
# Revision: 0
# Processed by: cddbd v1.5PL3 Copyright (c) Steve Scherf et al.
# Submitted via: CDex 1.51
#
DISCID=49115606
DTITLE=久保田利伸 - Our Christmas
DYEAR=2003
DGENRE=JPop
TTITLE0=Our Christmas
TTITLE1=La vie son Musique
TTITLE2=FUNKY DOGS
TTITLE3=Our Christmas (surrounded by TK/karaoke)
TTITLE4=LGCD Data Track 01
TTITLE5=LGCD Data Track 02
EXTD=YEAR: 2003
EXTT0=
EXTT1=
EXTT2=
EXTT3=
EXTT4=
EXTT5=
PLAYORDER=
